<svg width="24" height="24" viewBox="0 0 24 24" fill="none" xmlns="http://www.w3.org/2000/svg">
<g clip-path="url(#clip0_109_2)">
<path fill-rule="evenodd" clip-rule="evenodd" d="M20.362 13.877C20.5389 13.8528 20.701 13.7653 20.8183 13.6307C20.9356 13.4961 21.0002 13.3235 21 13.145V10.855L20.992 10.745C20.9684 10.5871 20.8942 10.4412 20.7806 10.329C20.667 10.2169 20.5201 10.1446 20.362 10.123L20.262 10.116L20.102 10.121L20.036 10.12L19.76 10.134C18.9802 10.1548 18.2043 10.0166 17.4796 9.72776C16.7549 9.43893 16.0967 9.00553 15.545 8.454C14.9607 7.86905 14.5096 7.16494 14.2222 6.38973C13.9349 5.61451 13.8181 4.78644 13.88 3.962V3.9L13.89 3.898V3.739L13.882 3.629C13.858 3.47138 13.7837 3.32574 13.6702 3.21382C13.5566 3.1019 13.4099 3.0297 13.252 3.008L13.15 3H10.848L10.748 3.007C10.5713 3.03117 10.4093 3.11853 10.292 3.25292C10.1747 3.38731 10.11 3.55963 10.11 3.738V3.897L10.12 3.899L10.119 3.962C10.1808 4.78644 10.0641 5.61451 9.77677 6.38973C9.48943 7.16494 9.03824 7.86905 8.45399 8.454C7.86932 9.03841 7.16543 9.48977 6.39037 9.77729C5.61532 10.0648 4.78735 10.1817 3.96299 10.12H3.89599L3.73599 10.116L3.63599 10.123C3.45928 10.1474 3.29738 10.235 3.18027 10.3696C3.06316 10.5042 2.99877 10.6766 2.99899 10.855V13.145L3.00699 13.255C3.03061 13.4129 3.10478 13.5588 3.21837 13.671C3.33196 13.7831 3.47884 13.8554 3.63699 13.877L3.73699 13.884L3.89699 13.879L3.96299 13.88L4.23899 13.866C5.01882 13.8452 5.79472 13.9834 6.51938 14.2722C7.24404 14.5611 7.90229 14.9945 8.45399 15.546C9.03824 16.131 9.48943 16.8351 9.77677 17.6103C10.0641 18.3855 10.1808 19.2136 10.119 20.038L10.12 20.101L10.11 20.103V20.262L10.118 20.372C10.142 20.5296 10.2163 20.6753 10.3298 20.7872C10.4434 20.8991 10.59 20.9713 10.748 20.993L10.848 21H13.15L13.25 20.993C13.4267 20.9688 13.5887 20.8815 13.706 20.7471C13.8233 20.6127 13.8879 20.4404 13.888 20.262V20.103L13.878 20.101L13.879 20.038C13.8171 19.2136 13.9339 18.3855 14.2212 17.6103C14.5086 16.8351 14.9597 16.131 15.544 15.546C16.1287 14.9616 16.8326 14.5102 17.6076 14.2227C18.3827 13.9352 19.2106 13.8183 20.035 13.88H20.102L20.262 13.884L20.362 13.877ZM12.06 17.88L12.004 18.146L12.001 18.139L11.998 18.153L11.942 17.88L11.861 17.558C11.4929 16.2116 10.7673 14.9899 9.76116 14.0225C8.75501 13.0551 7.50579 12.378 6.14599 12.063L5.83499 12L6.14499 11.937C7.55951 11.6091 8.8532 10.8898 9.87816 9.8613C10.9031 8.8328 11.618 7.53663 11.941 6.121L11.995 5.857L12 5.861L12.003 5.847L12.059 6.12L12.14 6.442C12.508 7.78844 13.2335 9.01018 14.2397 9.97762C15.2459 10.9451 16.4951 11.6221 17.855 11.937L18.165 12L17.855 12.063C16.4405 12.3909 15.1468 13.1102 14.1218 14.1387C13.0969 15.1672 12.382 16.4634 12.059 17.879L12.06 17.88Z" fill="#3F4064"/>
</g>
<defs>
<clipPath id="clip0_109_2">
<rect width="24" height="24" fill="white"/>
</clipPath>
</defs>
</svg>
