<svg width="20" height="20" viewBox="0 0 20 20" fill="none" xmlns="http://www.w3.org/2000/svg">
<path d="M16.6417 8.33333H3.30833V15C3.30833 17.5 4.14166 18.3333 6.64166 18.3333H13.3083C15.8083 18.3333 16.6417 17.5 16.6417 15V8.33333ZM17.9167 5.83333V6.66667C17.9167 7.58333 17.475 8.33333 16.25 8.33333H3.74999C2.47499 8.33333 2.08333 7.58333 2.08333 6.66667V5.83333C2.08333 4.91667 2.47499 4.16667 3.74999 4.16667H16.25C17.475 4.16667 17.9167 4.91667 17.9167 5.83333ZM9.7 4.16667H5.09999C4.96297 4.01805 4.889 3.82204 4.89366 3.61995C4.89832 3.41786 4.98126 3.22547 5.12499 3.08333L6.30833 1.9C6.45809 1.75191 6.66021 1.66885 6.87083 1.66885C7.08144 1.66885 7.28357 1.75191 7.43333 1.9L9.7 4.16667ZM14.8917 4.16667H10.2917L12.5583 1.9C12.7081 1.75191 12.9102 1.66885 13.1208 1.66885C13.3314 1.66885 13.5336 1.75191 13.6833 1.9L14.8667 3.08333C15.1667 3.38333 15.175 3.85833 14.8917 4.16667Z" stroke="#9E9FB1" stroke-width="1.5" stroke-miterlimit="10" stroke-linecap="round" stroke-linejoin="round"/>
<path d="M7.45 8.33334V12.6167C7.45 13.2833 8.18333 13.675 8.74166 13.3167L9.525 12.8C9.66106 12.7104 9.82041 12.6626 9.98333 12.6626C10.1463 12.6626 10.3056 12.7104 10.4417 12.8L11.1833 13.3C11.3085 13.3834 11.4539 13.4313 11.6042 13.4386C11.7544 13.4458 11.9038 13.4121 12.0364 13.3411C12.169 13.2701 12.2798 13.1645 12.357 13.0354C12.4343 12.9063 12.4751 12.7587 12.475 12.6083V8.33334H7.45Z" stroke="#9E9FB1" stroke-width="1.5" stroke-miterlimit="10" stroke-linecap="round" stroke-linejoin="round"/>
</svg>
