<svg width="20" height="20" viewBox="0 0 20 20" fill="none" xmlns="http://www.w3.org/2000/svg">
<path d="M9.99999 11.1917C10.3414 11.1917 10.6795 11.1244 10.995 10.9938C11.3104 10.8631 11.597 10.6716 11.8385 10.4301C12.0799 10.1887 12.2714 9.90209 12.4021 9.58664C12.5327 9.2712 12.6 8.9331 12.6 8.59167C12.6 8.25023 12.5327 7.91214 12.4021 7.59669C12.2714 7.28124 12.0799 6.99462 11.8385 6.75319C11.597 6.51176 11.3104 6.32024 10.995 6.18958C10.6795 6.05892 10.3414 5.99167 9.99999 5.99167C9.31043 5.99167 8.64911 6.26559 8.16152 6.75319C7.67392 7.24078 7.39999 7.9021 7.39999 8.59167C7.39999 9.28123 7.67392 9.94255 8.16152 10.4301C8.64911 10.9177 9.31043 11.1917 9.99999 11.1917Z" stroke="#3F4064" stroke-width="1.5"/>
<path d="M3.01667 7.075C4.65834 -0.141667 15.35 -0.133334 16.9833 7.08333C17.9417 11.3167 15.3083 14.9 13 17.1167C12.1934 17.8946 11.1165 18.3293 9.99584 18.3293C8.87521 18.3293 7.79828 17.8946 6.99167 17.1167C4.69167 14.9 2.05834 11.3083 3.01667 7.075Z" stroke="#3F4064" stroke-width="1.5"/>
</svg>
