<svg width="20" height="20" viewBox="0 0 20 20" fill="none" xmlns="http://www.w3.org/2000/svg">
<g clip-path="url(#clip0_62_8)">
<path d="M7.14166 12.725L12.5917 7.275M7.48333 8.64167C7.75517 8.64167 8.01589 8.53368 8.20811 8.34145C8.40034 8.14923 8.50833 7.88851 8.50833 7.61667C8.50833 7.34482 8.40034 7.08411 8.20811 6.89188C8.01589 6.69966 7.75517 6.59167 7.48333 6.59167C7.21148 6.59167 6.95077 6.69966 6.75854 6.89188C6.56632 7.08411 6.45833 7.34482 6.45833 7.61667C6.45833 7.88851 6.56632 8.14923 6.75854 8.34145C6.95077 8.53368 7.21148 8.64167 7.48333 8.64167ZM12.9333 13.4083C13.2052 13.4083 13.4659 13.3003 13.6581 13.1081C13.8503 12.9159 13.9583 12.6552 13.9583 12.3833C13.9583 12.1115 13.8503 11.8508 13.6581 11.6585C13.4659 11.4663 13.2052 11.3583 12.9333 11.3583C12.6615 11.3583 12.4008 11.4663 12.2085 11.6585C12.0163 11.8508 11.9083 12.1115 11.9083 12.3833C11.9083 12.6552 12.0163 12.9159 12.2085 13.1081C12.4008 13.3003 12.6615 13.4083 12.9333 13.4083Z" stroke="#9E9FB1" stroke-width="1.5" stroke-linecap="round" stroke-linejoin="round"/>
<path d="M10 18.3333C14.6025 18.3333 18.3333 14.6025 18.3333 10C18.3333 5.3975 14.6025 1.66666 10 1.66666C5.39751 1.66666 1.66667 5.3975 1.66667 10C1.66667 14.6025 5.39751 18.3333 10 18.3333Z" stroke="#9E9FB1" stroke-width="1.5" stroke-linecap="round" stroke-linejoin="round"/>
</g>
<defs>
<clipPath id="clip0_62_8">
<rect width="20" height="20" fill="white"/>
</clipPath>
</defs>
</svg>
