<svg xmlns="http://www.w3.org/2000/svg" viewBox="0 0 116.96 117.19"><defs><style>.cls-1{fill:#fff;}.cls-2{fill:#ee4055;}</style></defs><g id="Layer_2" data-name="Layer 2"><g id="logosandtypes_com" data-name="logosandtypes com"><rect class="cls-1" x="18.63" y="45.25" width="80.81" height="43.47"/><path class="cls-2" d="M72.38,0C50.9,0,29.43.21,8,.34,1.1.14-.28,2.93,0,9.2.17,43.46,0,77.73.33,112c.2,5.19,4.74,5.12,8.84,5.08,11.17,0,53.84.22,64,.08A53.5,53.5,0,0,0,84,116.05c20.62-4.59,32.7-23.42,32.87-39q.18-17.85.12-35.71C115.93,17.6,96.67-.26,72.38,0ZM92.3,62.14c-16.47,21-50.36,21-66.84,0A3,3,0,0,1,26,57.93l.23-.17c1.62-1.2,3.28-2.35,5-3.47,2-1.37,3.33-1.28,5,.53a30.55,30.55,0,0,0,43.14,2.32,28.22,28.22,0,0,0,2.32-2.32c1.65-1.81,3-1.9,5-.53,1.68,1.12,3.34,2.27,5,3.47a3,3,0,0,1,.8,4.17Z"/></g></g></svg>